<?xml version="1.0" encoding="UTF-8" standalone="no"?>
<!-- Created with Inkscape (http://www.inkscape.org/) -->

<svg
   width="210mm"
   height="297mm"
   viewBox="0 0 210 297"
   version="1.1"
   id="svg1"
   inkscape:version="1.4.3 (0d15f75042, 2025-12-25)"
   sodipodi:docname="logo-shape-final-clean.svg"
   xmlns:inkscape="http://www.inkscape.org/namespaces/inkscape"
   xmlns:sodipodi="http://sodipodi.sourceforge.net/DTD/sodipodi-0.dtd"
   xmlns="http://www.w3.org/2000/svg"
   xmlns:svg="http://www.w3.org/2000/svg">
  <sodipodi:namedview
     id="namedview1"
     pagecolor="#ffffff"
     bordercolor="#000000"
     borderopacity="0.25"
     inkscape:showpageshadow="2"
     inkscape:pageopacity="0.0"
     inkscape:pagecheckerboard="0"
     inkscape:deskcolor="#d1d1d1"
     inkscape:document-units="mm"
     showguides="true"
     inkscape:zoom="1.0066252"
     inkscape:cx="272.69334"
     inkscape:cy="473.36386"
     inkscape:window-width="1920"
     inkscape:window-height="1008"
     inkscape:window-x="0"
     inkscape:window-y="0"
     inkscape:window-maximized="1"
     inkscape:current-layer="layer1">
    <sodipodi:guide
       position="143.81415,211.63891"
       orientation="0,-1"
       id="guide1"
       inkscape:locked="false" />
    <sodipodi:guide
       position="73.812529,157.50487"
       orientation="0,-1"
       id="guide2"
       inkscape:locked="false" />
    <sodipodi:guide
       position="232.61511,184.5719"
       orientation="0,-1"
       id="guide3"
       inkscape:locked="false" />
  </sodipodi:namedview>
  <defs
     id="defs1" />
  <g
     inkscape:label="Layer 1"
     inkscape:groupmode="layer"
     id="layer1">
    <path
       id="path6"
       style="baseline-shift:baseline;display:inline;overflow:visible;vector-effect:none;stroke-linejoin:round;enable-background:accumulate;stop-color:#000000;stop-opacity:1;opacity:1;fill:#f94573;fill-opacity:1"
       d="M 99.046667 67.388652 A 9.0009 9.0009 0 0 0 97.642619 67.511125 A 9.0009 9.0009 0 0 0 96.717611 67.69561 A 9.0009 9.0009 0 0 0 95.603467 68.073364 A 9.0009 9.0009 0 0 0 95.60295 68.073881 A 9.0009 9.0009 0 0 0 92.683748 70.023633 L 62.263383 100.444 L 74.990771 100.444 L 74.990771 113.17139 L 90.0467 98.115458 L 90.0467 139.50001 L 48.662146 139.50001 L 62.99047 125.17169 L 62.99047 112.4443 L 50.262565 112.4443 L 20.570321 142.13654 A 9.0009 9.0009 0 0 0 26.933757 157.49995 L 99.046667 157.49995 A 9.0009 9.0009 0 0 0 99.549479 157.46636 A 9.0009 9.0009 0 0 0 100.02439 157.43535 A 9.0009 9.0009 0 0 0 100.76801 157.31391 A 9.0009 9.0009 0 0 0 101.23103 157.22038 A 9.0009 9.0009 0 0 0 101.95347 156.99662 A 9.0009 9.0009 0 0 0 102.39478 156.84469 A 9.0009 9.0009 0 0 0 103.0826 156.52223 A 9.0009 9.0009 0 0 0 103.50118 156.31191 A 9.0009 9.0009 0 0 0 104.14455 155.89281 A 9.0009 9.0009 0 0 0 104.51972 155.63753 A 9.0009 9.0009 0 0 0 105.11968 155.1156 A 9.0009 9.0009 0 0 0 105.4101 154.86342 L 105.48297 154.79055 L 135.82995 124.4446 L 123.10256 124.4446 L 123.10256 111.71721 L 108.04663 126.77366 L 108.04663 85.388586 L 149.42964 85.388586 L 135.10286 99.715877 L 135.10286 112.4443 L 147.83025 112.4443 L 177.52353 82.752055 A 9.0009 9.0009 0 0 0 171.15803 67.388652 L 99.046667 67.388652 z " />
  </g>
</svg>
