<svg xmlns="http://www.w3.org/2000/svg" version="1.1" viewBox="-5.0 -10.0 110.0 135.0">
 <path d="m66.113 31.742-4.1367 4.6836c3.8945 3.4375 6.1289 8.3828 6.1289 13.574 0 9.9805-8.1211 18.102-18.102 18.102-9.9805 0-18.102-8.1211-18.102-18.102s8.1211-18.102 18.102-18.102c2.2734 0 4.4805 0.41406 6.5703 1.2266l2.2734-5.8203c-2.8164-1.0977-5.793-1.6523-8.8398-1.6523-13.43 0-24.352 10.926-24.352 24.352 0 13.43 10.926 24.352 24.352 24.352 13.43 0 24.352-10.926 24.352-24.352 0-6.9805-3.0039-13.637-8.2422-18.258z"/>
 <path d="m46.875 12.5h6.25v8.1367h-6.25z"/>
 <path d="m21.277 25.695 4.418-4.4219 5.7539 5.7539-4.418 4.4219z"/>
 <path d="m12.504 46.875h8.1367v6.25h-8.1367z"/>
 <path d="m21.273 74.309 5.7539-5.7539 4.418 4.418-5.7539 5.7539z"/>
 <path d="m46.875 79.363h6.25v8.1367h-6.25z"/>
 <path d="m68.551 72.969 4.418-4.4219 5.7539 5.7539-4.418 4.4219z"/>
 <path d="m79.363 46.875h8.1367v6.25h-8.1367z"/>
 <path d="m68.551 27.031 5.7539-5.7539 4.418 4.418-5.7539 5.7539z"/>
</svg>