<svg xmlns="http://www.w3.org/2000/svg" version="1.1" viewBox="-5.0 -10.0 110.0 135.0">
 <path d="m21.898 50c0 15.496 12.605 28.105 28.102 28.105s28.102-12.609 28.102-28.105-12.605-28.105-28.102-28.105-28.102 12.609-28.102 28.105zm24.977-21.605v14.07h11.301c0.66797 0 1.2109 0.54297 1.2109 1.2109 0 0.66406-0.54297 1.2109-1.2109 1.2109h-23.656v9.582h-5.9102c-0.30078-1.4414-0.46094-2.9336-0.46094-4.4648 0-10.988 8.1562-20.082 18.727-21.605zm24.977 21.605c0 3.9805-1.0859 7.7109-2.957 10.93h-15.48v6.25h10.055c-3.7148 2.918-8.3867 4.6797-13.469 4.6797-8.1562 0-15.273-4.5-19.027-11.141h9.793v-3.332c0-3.4531 2.7969-6.25 6.25-6.25h10.719c3.8984 0 7.4648-2.8008 7.8594-6.6797 0.45312-4.4609-3.0547-8.2383-7.4219-8.2383h-5.0508v-7.8203c10.57 1.5234 18.727 10.617 18.727 21.605z"/>
 <path d="m15.121 50c0-19.23 15.648-34.879 34.879-34.879 6.7695 0 13.332 1.9414 18.977 5.6055l3.4062-5.2422c-6.6641-4.3281-14.398-6.6172-22.383-6.6172-22.68 0-41.129 18.449-41.129 41.129 0 5.2539 0.97656 10.367 2.9062 15.211l5.8047-2.3086c-1.6328-4.1016-2.4609-8.4453-2.4609-12.898z"/>
 <path d="m79.586 21.43-4.4961 4.3438c6.3164 6.5352 9.7891 15.141 9.7891 24.227 0 19.23-15.648 34.879-34.879 34.879-11.055 0-21.562-5.3242-28.117-14.242l-5.0352 3.7031c7.7266 10.512 20.117 16.789 33.152 16.789 22.68 0 41.129-18.449 41.129-41.129 0-10.719-4.1016-20.867-11.539-28.57z"/>
</svg>