<svg xmlns="http://www.w3.org/2000/svg" version="1.1" viewBox="-5.0 -10.0 110.0 135.0">
 <path d="m75.285 40.316c-0.80469-0.015625-1.6055 0.011719-2.4102 0.089844l-5.2188-19.5h-10.938v6.25h6.125l1.1875 4.4375h-30.219l-4 9.3125c-4.1367-1.0547-9.0195-0.87109-13.945 1.9453-5.5898 3.1992-9.5508 8.9258-10.031 15.352-0.92969 12.395 9.8711 22.625 22.445 20.645 8.0156-1.2617 14.559-7.6797 15.973-15.668 1.4609-8.2461-2.3828-15.789-8.6914-19.805l0.75-1.7461c0.98438-2.2969 3.2422-3.7852 5.7422-3.7852h23.664l0.4375 1.625 0.6875 2.5938c-7.9375 3.582-13.039 12.355-10.93 21.992 1.5742 7.1797 7.3711 12.973 14.547 14.555 13.711 3.0273 25.734-8.6133 23.48-22.215-1.4922-9.0117-9.5273-15.883-18.664-16.078zm-36.973 19.371c0 7.25-5.9062 13.156-13.156 13.156s-13.125-5.9062-13.125-13.156 5.9062-13.125 13.125-13.125c0.75 0 1.4375 0.09375 2.1562 0.21875l-5.0312 11.688 5.75 2.4688 5-11.688c3.1875 2.4062 5.2812 6.1875 5.2812 10.438zm36.531 13.156c-7.25 0-13.156-5.9062-13.156-13.156 0-4.9375 2.7812-9.1875 6.8438-11.438l3.2812 12.25 6.0312-1.625-3.3125-12.281c0.125 0 0.1875-0.03125 0.3125-0.03125 7.2188 0 13.125 5.9062 13.125 13.125s-5.9062 13.156-13.125 13.156z"/>
 <path d="m27.035 21.812h12.574v6.25h-12.574z"/>
</svg>