<?xml version="1.0" encoding="UTF-8" standalone="no"?>
<!-- Created with Inkscape (http://www.inkscape.org/) -->

<svg
   width="210mm"
   height="297mm"
   viewBox="0 0 210 297"
   version="1.1"
   id="svg1"
   inkscape:version="1.4.3 (0d15f75042, 2025-12-25)"
   sodipodi:docname="logo2.svg"
   xmlns:inkscape="http://www.inkscape.org/namespaces/inkscape"
   xmlns:sodipodi="http://sodipodi.sourceforge.net/DTD/sodipodi-0.dtd"
   xmlns="http://www.w3.org/2000/svg"
   xmlns:svg="http://www.w3.org/2000/svg">
  <sodipodi:namedview
     id="namedview1"
     pagecolor="#ffffff"
     bordercolor="#000000"
     borderopacity="0.25"
     inkscape:showpageshadow="2"
     inkscape:pageopacity="0.0"
     inkscape:pagecheckerboard="0"
     inkscape:deskcolor="#d1d1d1"
     inkscape:document-units="mm"
     inkscape:zoom="1.3572037"
     inkscape:cx="124.52073"
     inkscape:cy="386.45636"
     inkscape:window-width="1920"
     inkscape:window-height="1008"
     inkscape:window-x="0"
     inkscape:window-y="0"
     inkscape:window-maximized="1"
     inkscape:current-layer="layer1"
     showguides="true" />
  <defs
     id="defs1" />
  <g
     inkscape:label="Layer 1"
     inkscape:groupmode="layer"
     id="layer1">
    <path
       d="m 47.916979,19.362826 q -1.273956,0 -2.884429,0.480738 v 5.768857 h 3.605536 q 0.961476,0 0.961476,-0.961476 v -4.446828 q 0,-0.360553 -0.240369,-0.600922 -0.240369,-0.240369 -0.600923,-0.240369 z m -2.884429,9.494576 v 4.086274 H 40.826092 V 16.117843 h 3.72572 l 0.240369,1.201846 q 1.129735,-0.745144 2.307543,-1.081661 1.201845,-0.360554 2.0191,-0.360554 h 1.081661 q 1.634509,0 2.620022,0.985513 0.985513,0.985513 0.985513,2.620023 v 5.528488 q 0,1.802768 -1.033587,2.836355 -1.009549,1.009549 -2.812317,1.009549 z m 14.061564,4.326643 q -1.273957,0 -3.124798,-0.240369 v -3.124797 h 2.163322 q 0.913401,0 1.177807,-0.504775 0.288444,-0.504775 -0.09615,-1.418178 L 54.286733,16.117843 h 4.446827 l 3.004613,8.172548 2.523875,-8.172548 h 4.446827 l -4.80738,13.220297 q -0.697071,1.898916 -1.802769,2.860392 -1.105698,0.985513 -3.004612,0.985513 z m 23.075414,-7.932178 q 0,1.802768 -1.033586,2.836355 -1.00955,1.009549 -2.812318,1.009549 h -5.528488 q -1.802767,0 -2.836355,-1.009549 -1.00955,-1.033587 -1.00955,-2.836355 v -5.528488 q 0,-1.802768 1.00955,-2.812318 1.033588,-1.033587 2.836355,-1.033587 h 5.528488 q 1.802768,0 2.812318,1.033587 1.033586,1.00955 1.033586,2.812318 z m -4.206457,-5.167934 q 0,-0.961476 -0.961477,-0.961476 h -2.884428 q -0.961476,0 -0.961476,0.961476 v 4.807381 q 0,0.961476 0.961476,0.961476 h 2.884428 q 0.961477,0 0.961477,-0.961476 z m 13.701014,-0.480738 q -1.514325,0 -3.124798,0.721107 v 8.5331 H 84.332829 V 16.117843 h 3.72572 l 0.240369,1.562399 q 2.067174,-1.802768 4.326643,-1.802768 h 1.081661 v 3.725721 z m 7.811947,6.12941 q 1.273958,0 2.884428,-0.480738 v -1.442214 h -3.485348 q -0.360552,0 -0.600921,0.240369 -0.240369,0.240369 -0.240369,0.600923 v 0.240369 q 0,0.360553 0.240369,0.600922 0.240369,0.240369 0.600921,0.240369 z m -4.446823,-9.374393 q 4.398753,-0.480738 7.932181,-0.480738 1.6345,0 2.62002,0.985513 0.98551,0.985513 0.98551,2.620023 v 9.374392 h -3.72572 l -0.24037,-1.201845 q -1.12973,0.745144 -2.33158,1.105698 -1.177808,0.336516 -1.995059,0.336516 h -0.841292 q -1.634509,0 -2.620022,-0.985513 -0.985513,-0.985512 -0.985513,-2.620022 v -1.08166 q 0,-1.63451 0.985513,-2.620023 0.985513,-0.985513 2.620022,-0.985513 h 4.927561 v -0.961476 q 0,-0.360554 -0.24037,-0.600923 -0.24037,-0.240369 -0.60092,-0.240369 -1.562398,0 -3.461311,0.144222 -1.874878,0.14422 -3.02865,0.216332 z m 22.594671,12.49919 q -2.33158,0.240369 -4.56701,0.240369 -1.63451,0 -2.62002,-0.985513 -0.98552,-0.985512 -0.98552,-2.620022 v -6.12941 h -1.44221 v -3.244983 h 1.44221 l 0.48074,-2.884428 h 3.72572 v 2.884428 h 3.00462 v 3.244983 h -3.00462 v 5.528488 q 0,0.360553 0.24037,0.600922 0.24037,0.240369 0.60092,0.240369 h 3.1248 z m 14.18178,-3.605535 q 0,1.802768 -1.03359,2.836355 -1.00955,1.009549 -2.81232,1.009549 h -5.52849 q -1.80277,0 -2.83635,-1.009549 -1.00955,-1.033587 -1.00955,-2.836355 v -5.528488 q 0,-1.802768 1.00955,-2.812318 1.03358,-1.033587 2.83635,-1.033587 h 5.52849 q 1.80277,0 2.81232,1.033587 1.03359,1.00955 1.03359,2.812318 z m -4.20646,-5.167934 q 0,-0.961476 -0.96148,-0.961476 h -2.88442 q -0.96149,0 -0.96149,0.961476 v 4.807381 q 0,0.961476 0.96149,0.961476 h 2.88442 q 0.96148,0 0.96148,-0.961476 z m 13.70101,-0.480738 q -1.51432,0 -3.1248,0.721107 v 8.5331 h -4.20646 V 16.117843 h 3.72573 l 0.24037,1.562399 q 2.06717,-1.802768 4.32664,-1.802768 h 1.08166 v 3.725721 z m 9.01382,-3.004613 v 12.25882 h -4.20646 v -9.013838 h -1.80277 v -3.244982 z m -4.20646,-4.807381 h 4.20646 v 3.365166 h -4.20646 z m 6.1294,13.460666 h 4.32664 v 3.605535 h -4.32664 z m 17.54694,3.365166 q -4.49491,0.480738 -7.93219,0.480738 -1.63451,0 -2.62001,-0.985513 -0.98552,-0.985512 -0.98552,-2.620022 v -5.528488 q 0,-1.802768 1.00955,-2.812318 1.03359,-1.033587 2.83635,-1.033587 h 7.69182 v 3.244983 h -6.36978 q -0.96148,0 -0.96148,0.961476 v 4.687196 q 0,0.360554 0.24037,0.600923 0.24037,0.240369 0.60092,0.240369 2.16332,0 6.48997,-0.360554 z m 14.90286,-3.365166 q 0,1.802768 -1.03359,2.836355 -1.00955,1.009549 -2.81232,1.009549 h -5.52848 q -1.80277,0 -2.83636,-1.009549 -1.00955,-1.033587 -1.00955,-2.836355 v -5.528488 q 0,-1.802768 1.00955,-2.812318 1.03359,-1.033587 2.83636,-1.033587 h 5.52848 q 1.80277,0 2.81232,1.033587 1.03359,1.00955 1.03359,2.812318 z m -4.20646,-5.167934 q 0,-0.961476 -0.96148,-0.961476 h -2.88443 q -0.96147,0 -0.96147,0.961476 v 4.807381 q 0,0.961476 0.96147,0.961476 h 2.88443 q 0.96148,0 0.96148,-0.961476 z m 14.90285,-4.206459 q 1.94699,0 3.00462,1.442215 1.10569,-0.745144 2.37965,-1.081661 1.29799,-0.360554 2.30754,-0.360554 h 0.24037 q 1.63451,0 2.62003,0.985513 0.98551,0.985513 0.98551,2.620023 v 9.374392 h -4.20646 v -8.653285 q 0,-0.360553 -0.24037,-0.600922 -0.24037,-0.240369 -0.60093,-0.240369 h -0.12018 q -1.08166,0 -2.76424,0.480738 v 9.013838 h -4.20646 v -8.653285 q 0,-0.360553 -0.24037,-0.600922 -0.24037,-0.240369 -0.60092,-0.240369 h -0.12019 q -1.08165,0 -2.76424,0.480738 v 9.013838 h -4.20646 V 16.117843 h 3.72572 l 0.24037,1.201846 q 1.12973,-0.745144 2.30754,-1.081661 1.20185,-0.360554 2.01911,-0.360554 z"
       id="text1"
       style="font-size:29.8841px;font-family:'Russo One';-inkscape-font-specification:'Russo One, Normal';fill:#333333;stroke-width:0.201218"
       aria-label="pyoratori.com" />
    <g
       id="g7"
       transform="matrix(0.32564543,0,0,0.32564543,78.66387,39.897964)">
      <path
         id="path2"
         style="baseline-shift:baseline;display:inline;overflow:visible;opacity:1;fill:#ff8b0b;stroke:none;stroke-width:1;stroke-dasharray:none;stroke-opacity:1;enable-background:accumulate;stop-color:#000000;stop-opacity:1"
         d="m 152.70334,36.033459 c -8.02295,0 -14.99977,4.715372 -18.29449,11.511443 -1.30963,-0.267743 -2.66373,-0.408244 -4.04937,-0.408244 -11.17071,0 -20.3109,9.141737 -20.3109,20.312455 0,11.170718 9.14019,20.312455 20.3109,20.312455 11.17072,0 20.31246,-9.141737 20.31246,-20.312455 0,-6.954366 -3.54316,-13.122178 -8.91315,-16.787606 2.03907,-3.952668 6.15354,-6.628536 10.94455,-6.628536 3.61729,0 6.84909,1.525736 9.09299,3.974435 0.0164,0.01791 0.0328,0.03573 0.0491,0.05374 l 5.58105,0.185002 0.18655,-5.631698 c -3.71862,-4.032632 -9.02613,-6.580994 -14.90968,-6.580994 z m -22.34386,19.103227 c 6.8472,0 12.31243,5.46523 12.31243,12.312427 0,6.847197 -5.46523,12.312427 -12.31243,12.312427 -6.84719,0 -12.31087,-5.46523 -12.31087,-12.312427 0,-6.847197 5.46368,-12.312427 12.31087,-12.312427 z" />
      <path
         style="baseline-shift:baseline;display:inline;overflow:visible;opacity:1;vector-effect:none;fill:#ff8b0b;enable-background:accumulate;stop-color:#000000;stop-opacity:1"
         d="m 175.32227,46.863281 c -11.17072,0 -20.3125,9.139829 -20.3125,20.310547 0,11.170718 9.14178,20.3125 20.3125,20.3125 11.17071,0 20.31054,-9.141782 20.31054,-20.3125 0,-11.170718 -9.13983,-20.310547 -20.31054,-20.310547 z m 0,8 c 6.84719,0 12.31054,5.46335 12.31054,12.310547 0,6.847197 -5.46335,12.3125 -12.31054,12.3125 -6.8472,0 -12.3125,-5.465303 -12.3125,-12.3125 0,-6.847197 5.4653,-12.310547 12.3125,-12.310547 z"
         id="path2-9" />
      <path
         d="m 161.84542,48.061149 c -0.0163,-0.01801 -0.0327,-0.03583 -0.0491,-0.05374 l -0.002,0.05219 z"
         style="fill:#0b8b0b;stroke-width:0.707108"
         id="path7" />
    </g>
    <ellipse
       style="fill:none;fill-opacity:1;stroke:#ff240b;stroke-width:5.45;stroke-dasharray:none;stroke-opacity:1"
       id="path8"
       cx="28.728962"
       cy="22.487623"
       rx="5.0604796"
       ry="5.0604882" />
    <ellipse
       style="fill:none;fill-opacity:1;stroke:#ff240b;stroke-width:5.45;stroke-dasharray:none;stroke-opacity:1"
       id="path8-0"
       cx="11.753838"
       cy="22.487623"
       rx="5.0604796"
       ry="5.0604882" />
    <path
       d="m 20.242175,12.232328 c -3.12424,0 -5.847805,1.885609 -7.082772,4.570264 l 4.747514,3.163631 c 0.02584,-1.296927 1.030282,-2.282548 2.335258,-2.282548 0.06401,0 0.127174,0.0026 0.189653,0.0072 l -2.727482,-2.727999 2.727482,-2.727999 c -0.06304,-0.0015 -0.126269,-0.0026 -0.189653,-0.0026 z"
       style="baseline-shift:baseline;display:inline;overflow:visible;opacity:1;vector-effect:none;fill:#ff240b;enable-background:accumulate;stop-color:#000000;stop-opacity:1"
       id="path14" />
    <path
       d="m 20.431828,12.234912 -2.727482,2.727999 2.727482,2.727999 c 0.0017,1.26e-4 0.0035,-1.29e-4 0.0052,0 l 2.727999,-2.727999 -2.727999,-2.727999 c -0.0016,-4e-5 -0.0031,3.9e-5 -0.0046,0 z"
       style="fill:#ff240b;stroke-width:3.94304;fill-opacity:1"
       id="path15" />
    <ellipse
       style="fill:none;fill-opacity:1;stroke:#ff240b;stroke-width:5.45;stroke-dasharray:none;stroke-opacity:1"
       id="path8-6"
       cx="80.138046"
       cy="74.865486"
       rx="5.0604796"
       ry="5.0604882" />
    <path
       d="m 72.487048,67.344727 1.138949,-2.11615 c -0.621478,-0.209198 -1.285943,-0.322461 -1.97559,-0.322461 -3.256387,0 -5.950917,2.529872 -6.215125,5.721098 l 2.481503,1.600935 c -0.09844,-0.343939 -0.151412,-0.708349 -0.151412,-1.085721 0,-2.159814 1.725226,-3.886585 3.885034,-3.886585 0.287694,0 0.567425,0.03065 0.836641,0.08888 z"
       style="baseline-shift:baseline;display:inline;overflow:visible;opacity:1;vector-effect:none;fill:#ff240b;enable-background:accumulate;stop-color:#000000;stop-opacity:1"
       id="path23" />
    <ellipse
       style="fill:none;fill-opacity:1;stroke:#ff240b;stroke-width:5.45;stroke-dasharray:none;stroke-opacity:1"
       id="path8-0-1"
       cx="63.162926"
       cy="74.865486"
       rx="5.0604796"
       ry="5.0604882" />
    <g
       id="g23">
      <path
         d="M 74.217692,68.215991 C 73.73392,67.791509 73.142344,67.486459 72.487048,67.344727 l -0.624768,1.161169 0.0072,0.01395 z"
         style="fill:#ff240b;stroke-width:1.99067;fill-opacity:1"
         id="path22" />
      <path
         d="m 75.255355,66.061084 c -0.494907,-0.352795 -1.043111,-0.635169 -1.629358,-0.832507 l -1.138949,2.11615 c 0.655296,0.141732 1.246872,0.446782 1.730644,0.871264 l 1.966805,-0.254248 z"
         style="fill:#ff240b;stroke-width:1.99067;fill-opacity:1"
         id="path21" />
      <path
         d="m 74.273503,64.052938 -0.01602,0.0021 -0.631486,1.173572 c 0.586247,0.197338 1.134451,0.479712 1.629358,0.832507 z"
         style="fill:#ff240b;stroke-width:1.99067;fill-opacity:1"
         id="path20" />
    </g>
  </g>
</svg>
