<svg xmlns="http://www.w3.org/2000/svg" viewBox="0 0 210 30">
  <path
    d="m 10.655923,10.949649 q -1.5838578,0 -3.5860925,0.597682 v 7.172184 h 4.4826155 q 1.195364,0 1.195364,-1.195364 v -5.528559 q 0,-0.448261 -0.298841,-0.747102 -0.298841,-0.298841 -0.747103,-0.298841 z M 7.0698305,22.753868 v 5.080297 H 1.840113 V 6.9152951 h 4.6320355 l 0.298841,1.494205 Q 8.1755422,7.483093 9.6398631,7.0647156 11.134068,6.6164541 12.150128,6.6164541 h 1.344784 q 2.032119,0 3.257367,1.2252481 1.225248,1.2252481 1.225248,3.2573668 v 6.873343 q 0,2.241308 -1.285016,3.526324 -1.255132,1.255132 -3.49644,1.255132 z m 17.4821675,5.379138 q -1.583858,0 -3.884933,-0.298841 v -3.884933 h 2.689569 q 1.135595,0 1.46432,-0.627566 0.35861,-0.627566 -0.119536,-1.763162 L 18.575178,6.9152951 h 5.528558 l 3.735513,10.1605939 3.13783,-10.1605939 h 5.528559 L 30.528818,23.35155 q -0.866639,2.360844 -2.241308,3.556208 -1.374669,1.225248 -3.735512,1.225248 z m 28.68872,-9.861753 q 0,2.241308 -1.285016,3.526324 -1.255132,1.255132 -3.49644,1.255132 h -6.873343 q -2.241307,0 -3.526324,-1.255132 -1.255132,-1.285016 -1.255132,-3.526324 V 11.39791 q 0,-2.2413074 1.255132,-3.4964396 1.285017,-1.2850163 3.526324,-1.2850163 h 6.873343 q 2.241308,0 3.49644,1.2850163 1.285016,1.2551322 1.285016,3.4964396 z m -5.229717,-6.425081 q 0,-1.195364 -1.195364,-1.195364 h -3.586092 q -1.195364,0 -1.195364,1.195364 v 5.97682 q 0,1.195364 1.195364,1.195364 h 3.586092 q 1.195364,0 1.195364,-1.195364 z M 65.044912,11.24849 q -1.882698,0 -3.884933,0.896523 V 22.753868 H 55.930262 V 6.9152951 h 4.632035 l 0.298841,1.9424665 q 2.570033,-2.2413075 5.379138,-2.2413075 h 1.344785 V 11.24849 Z m 9.71228,7.620445 q 1.583858,0 3.586092,-0.597682 V 16.478207 H 74.01009 q -0.448262,0 -0.747103,0.298841 -0.298841,0.298841 -0.298841,0.747103 v 0.298841 q 0,0.448261 0.298841,0.747102 0.298841,0.298841 0.747103,0.298841 z M 69.228634,7.2141361 q 5.46879,-0.597682 9.861753,-0.597682 2.032119,0 3.257367,1.2252481 1.225248,1.2252481 1.225248,3.2573668 v 11.654799 h -4.632036 l -0.298841,-1.494205 q -1.404552,0.926407 -2.898757,1.374669 -1.464321,0.418377 -2.480381,0.418377 h -1.045943 q -2.032119,0 -3.257367,-1.225248 -1.225248,-1.225248 -1.225248,-3.257367 V 17.22531 q 0,-2.032119 1.225248,-3.257367 1.225248,-1.225248 3.257367,-1.225248 h 6.12624 v -1.195364 q 0,-0.448262 -0.298841,-0.747103 -0.298841,-0.298841 -0.747102,-0.298841 -1.942467,0 -4.30331,0.179305 -2.33096,0.179304 -3.765397,0.268957 z M 97.31967,22.753868 q -2.898758,0.298841 -5.677979,0.298841 -2.032119,0 -3.257367,-1.225248 -1.225248,-1.225248 -1.225248,-3.257367 V 10.949649 H 85.36603 V 6.9152951 h 1.793046 l 0.597682,-3.586092 h 4.632035 v 3.586092 h 3.735513 v 4.0343539 h -3.735513 v 6.873343 q 0,0.448261 0.298841,0.747102 0.298841,0.298841 0.747103,0.298841 h 3.884933 z m 17.63162,-4.482615 q 0,2.241308 -1.28502,3.526324 -1.25513,1.255132 -3.49644,1.255132 h -6.87334 q -2.24131,0 -3.526323,-1.255132 -1.255132,-1.285016 -1.255132,-3.526324 V 11.39791 q 0,-2.2413074 1.255132,-3.4964396 1.285013,-1.2850163 3.526323,-1.2850163 h 6.87334 q 2.24131,0 3.49644,1.2850163 1.28502,1.2551322 1.28502,3.4964396 z m -5.22972,-6.425081 q 0,-1.195364 -1.19536,-1.195364 h -3.58609 q -1.19537,0 -1.19537,1.195364 v 5.97682 q 0,1.195364 1.19537,1.195364 h 3.58609 q 1.19536,0 1.19536,-1.195364 z m 17.03391,-0.597682 q -1.88269,0 -3.88493,0.896523 v 10.608855 h -5.22972 V 6.9152951 h 4.63204 l 0.29884,1.9424665 q 2.57003,-2.2413075 5.37914,-2.2413075 h 1.34478 V 11.24849 Z M 137.96199,7.5129771 V 22.753868 h -5.22971 V 11.547331 h -2.24131 V 7.5129771 Z m -5.22971,-5.97682 h 5.22971 v 4.183774 h -5.22971 z m 7.62043,16.7350959 h 5.37913 v 4.482615 h -5.37913 z m 21.81539,4.183774 q -5.58833,0.597682 -9.86176,0.597682 -2.03212,0 -3.25736,-1.225248 -1.22525,-1.225248 -1.22525,-3.257367 v -6.873343 q 0,-2.2413074 1.25513,-3.4964396 1.28502,-1.2850163 3.52632,-1.2850163 h 9.56292 v 4.0343539 h -7.91929 q -1.19537,0 -1.19537,1.195364 v 5.827399 q 0,0.448262 0.29885,0.747103 0.29884,0.298841 0.7471,0.298841 2.68957,0 8.06871,-0.448262 z m 18.52812,-4.183774 q 0,2.241308 -1.28502,3.526324 -1.25513,1.255132 -3.49644,1.255132 h -6.87334 q -2.24131,0 -3.52633,-1.255132 -1.25513,-1.285016 -1.25513,-3.526324 V 11.39791 q 0,-2.2413074 1.25513,-3.4964396 1.28502,-1.2850163 3.52633,-1.2850163 h 6.87334 q 2.24131,0 3.49644,1.2850163 1.28502,1.2551322 1.28502,3.4964396 z m -5.22972,-6.425081 q 0,-1.195364 -1.19537,-1.195364 h -3.58609 q -1.19536,0 -1.19536,1.195364 v 5.97682 q 0,1.195364 1.19536,1.195364 h 3.58609 q 1.19537,0 1.19537,-1.195364 z m 18.52811,-5.2297179 q 2.42061,0 3.73551,1.793046 1.37467,-0.9264071 2.95853,-1.3447845 1.61374,-0.4482615 2.86887,-0.4482615 h 0.29884 q 2.03212,0 3.25737,1.2252481 1.22525,1.2252481 1.22525,3.2573668 v 11.654799 h -5.22972 V 11.995592 q 0,-0.448261 -0.29884,-0.747102 -0.29884,-0.298841 -0.74711,-0.298841 h -0.14942 q -1.34478,0 -3.43667,0.597682 v 11.206537 h -5.22971 V 11.995592 q 0,-0.448261 -0.29885,-0.747102 -0.29884,-0.298841 -0.7471,-0.298841 h -0.14942 q -1.34478,0 -3.43667,0.597682 v 11.206537 h -5.22972 V 6.9152951 h 4.63204 l 0.29884,1.494205 q 1.40455,-0.9264071 2.86887,-1.3447845 1.49421,-0.4482615 2.51027,-0.4482615 z"
    fill="#333333"
    aria-label="pyoratori.com" />
</svg>
