<svg
   width="200"
   height="32"
   viewBox="55 89 200 32"
   version="1.1"
   xmlns="http://www.w3.org/2000/svg">
  <path
     id="symbol"
     style="fill:#f94573;fill-opacity:1;stroke:none"
     d="m 71.31852,95.316878 a 1.9615696,1.9615696 0 0 0 -0.278402,0.129708 1.9615696,1.9615696 0 0 0 -0.175682,0.10673 1.9615696,1.9615696 0 0 0 -0.200007,0.160358 1.9615696,1.9615696 0 0 0 -6.8e-5,1.6e-4 1.9615696,1.9615696 0 0 0 -0.452489,0.616861 l -3.962279,8.497135 2.606411,-0.94865 0.948657,2.60642 1.961046,-4.2055 3.084662,8.47505 -8.475039,3.08465 1.866277,-4.00224 -0.948655,-2.60641 -2.606516,0.9487 -3.867444,8.29376 a 1.9615696,1.9615696 0 0 0 2.448289,2.67192 l 14.767825,-5.37505 a 1.9615696,1.9615696 0 0 0 0.100475,-0.0443 1.9615696,1.9615696 0 0 0 0.09495,-0.0416 1.9615696,1.9615696 0 0 0 0.143232,-0.0803 1.9615696,1.9615696 0 0 0 0.08785,-0.0537 1.9615696,1.9615696 0 0 0 0.131261,-0.0996 1.9615696,1.9615696 0 0 0 0.07905,-0.064 1.9615696,1.9615696 0 0 0 0.116833,-0.11718 1.9615696,1.9615696 0 0 0 0.07004,-0.0743 1.9615696,1.9615696 0 0 0 0.100508,-0.13381 1.9615696,1.9615696 0 0 0 0.0578,-0.0801 1.9615696,1.9615696 0 0 0 0.08396,-0.15155 1.9615696,1.9615696 0 0 0 0.04068,-0.0731 l 0.0095,-0.0203 3.952799,-8.47645 -2.606411,0.94867 -0.948656,-2.60642 -1.961011,4.20558 -3.084701,-8.475132 8.474725,-3.084528 -1.866048,4.001891 0.948734,2.606639 2.606413,-0.94866 3.867654,-8.293829 a 1.9615696,1.9615696 0 0 0 -2.44871,-2.67177 z" />
  <path
     d="m 97.537769,101.76852 q -1.132848,0 -2.56494,0.42749 v 5.12988 h 3.206175 q 0.85498,0 0.85498,-0.85498 v -3.95428 q 0,-0.32062 -0.213745,-0.53436 -0.213745,-0.21375 -0.534362,-0.21375 z m -2.56494,8.44293 v 3.63366 H 91.232292 V 98.882964 h 3.313047 l 0.213745,1.068725 q 1.004602,-0.66261 2.051952,-0.961853 1.068725,-0.320617 1.795458,-0.320617 h 0.961853 q 1.453463,0 2.329823,0.876354 0.87635,0.876357 0.87635,2.329817 v 4.91614 q 0,1.60309 -0.9191,2.52219 -0.89773,0.89773 -2.500818,0.89773 z m 12.504061,3.84741 q -1.13285,0 -2.77869,-0.21375 v -2.77868 h 1.92371 q 0.81223,0 1.04735,-0.44887 0.25649,-0.44886 -0.0855,-1.26109 l -4.38177,-10.473506 h 3.95428 l 2.67181,7.267326 2.24433,-7.267326 h 3.95428 l -4.2749,11.755976 q -0.61986,1.68858 -1.60309,2.54356 -0.98323,0.87636 -2.67181,0.87636 z m 20.51951,-7.05359 q 0,1.60309 -0.91911,2.52219 -0.89772,0.89773 -2.50081,0.89773 h -4.91614 q -1.60308,0 -2.52219,-0.89773 -0.89773,-0.9191 -0.89773,-2.52219 v -4.91613 q 0,-1.60309 0.89773,-2.500818 0.91911,-0.919103 2.52219,-0.919103 h 4.91614 q 1.60309,0 2.50081,0.919103 0.91911,0.897728 0.91911,2.500818 z m -3.74054,-4.59551 q 0,-0.85498 -0.85498,-0.85498 h -2.56494 q -0.85498,0 -0.85498,0.85498 v 4.2749 q 0,0.85498 0.85498,0.85498 h 2.56494 q 0.85498,0 0.85498,-0.85498 z m 12.18345,-0.42749 q -1.3466,0 -2.77869,0.64123 v 7.58795 h -3.74053 V 98.882964 h 3.31304 l 0.21375,1.389346 q 1.8382,-1.603091 3.84741,-1.603091 h 0.96185 v 3.313051 z m 6.94667,5.45049 q 1.13285,0 2.56494,-0.42749 v -1.28247 h -3.0993 q -0.32062,0 -0.53436,0.21375 -0.21375,0.21374 -0.21375,0.53436 v 0.21375 q 0,0.32061 0.21375,0.53436 0.21374,0.21374 0.53436,0.21374 z m -3.95428,-8.336051 q 3.91153,-0.42749 7.05359,-0.42749 1.45346,0 2.32982,0.876354 0.87635,0.876357 0.87635,2.329817 v 8.33606 h -3.31305 l -0.21374,-1.06873 q -1.0046,0.66261 -2.07333,0.98323 -1.04735,0.29924 -1.77408,0.29924 h -0.74811 q -1.45347,0 -2.32982,-0.87635 -0.87635,-0.87636 -0.87635,-2.32982 v -0.96185 q 0,-1.45347 0.87635,-2.32982 0.87635,-0.87636 2.32982,-0.87636 h 4.38177 v -0.85498 q 0,-0.32062 -0.21374,-0.53436 -0.21375,-0.21375 -0.53436,-0.21375 -1.38935,0 -3.07793,0.12825 -1.66721,0.12825 -2.69319,0.19237 z m 20.09201,11.114741 q -2.07332,0.21374 -4.06115,0.21374 -1.45347,0 -2.32982,-0.87635 -0.87636,-0.87636 -0.87636,-2.32982 v -5.4505 h -1.28247 v -2.885556 h 1.28247 l 0.42749,-2.564941 h 3.31305 v 2.564941 h 2.67181 v 2.885556 h -2.67181 v 4.91614 q 0,0.32061 0.21375,0.53436 0.21374,0.21374 0.53436,0.21374 h 2.77868 z m 12.61096,-3.20618 q 0,1.60309 -0.9191,2.52219 -0.89773,0.89773 -2.50082,0.89773 h -4.91613 q -1.60309,0 -2.52219,-0.89773 -0.89773,-0.9191 -0.89773,-2.52219 v -4.91613 q 0,-1.60309 0.89773,-2.500818 0.9191,-0.919103 2.52219,-0.919103 h 4.91613 q 1.60309,0 2.50082,0.919103 0.9191,0.897728 0.9191,2.500818 z m -3.74053,-4.59551 q 0,-0.85498 -0.85498,-0.85498 h -2.56494 q -0.85498,0 -0.85498,0.85498 v 4.2749 q 0,0.85498 0.85498,0.85498 h 2.56494 q 0.85498,0 0.85498,-0.85498 z m 12.18344,-0.42749 q -1.34659,0 -2.77869,0.64123 v 7.58795 h -3.74053 V 98.882964 h 3.31304 l 0.21375,1.389346 q 1.83821,-1.603091 3.84741,-1.603091 h 0.96185 v 3.313051 z m 8.01542,-2.671816 v 10.900996 h -3.74054 v -8.01544 h -1.60309 v -2.885556 z m -3.74054,-4.274901 h 3.74054 v 2.992431 h -3.74054 z m 5.4505,11.969717 h 3.84741 v 3.20618 h -3.84741 z m 15.60338,2.99243 q -3.99704,0.42749 -7.05359,0.42749 -1.45347,0 -2.32982,-0.87635 -0.87635,-0.87636 -0.87635,-2.32982 v -4.91614 q 0,-1.60308 0.89772,-2.500813 0.91911,-0.919103 2.5222,-0.919103 h 6.83984 v 2.885556 h -5.66425 q -0.85498,0 -0.85498,0.85498 v 4.16803 q 0,0.32062 0.21375,0.53436 0.21374,0.21375 0.53436,0.21375 1.92371,0 5.77112,-0.32062 z m 13.25217,-2.99243 q 0,1.60309 -0.9191,2.52219 -0.89773,0.89773 -2.50082,0.89773 h -4.91614 q -1.60308,0 -2.52219,-0.89773 -0.89773,-0.9191 -0.89773,-2.52219 v -4.91613 q 0,-1.60309 0.89773,-2.500818 0.91911,-0.919103 2.52219,-0.919103 h 4.91614 q 1.60309,0 2.50082,0.919103 0.9191,0.897728 0.9191,2.500818 z m -3.74054,-4.59551 q 0,-0.85498 -0.85498,-0.85498 h -2.56494 q -0.85498,0 -0.85498,0.85498 v 4.2749 q 0,0.85498 0.85498,0.85498 h 2.56494 q 0.85498,0 0.85498,-0.85498 z m 13.25217,-3.740541 q 1.73133,0 2.67181,1.28247 0.98323,-0.66261 2.11608,-0.961853 1.15422,-0.320617 2.05195,-0.320617 h 0.21374 q 1.45347,0 2.32982,0.876354 0.87636,0.876357 0.87636,2.329817 v 8.33606 h -3.74054 v -7.69482 q 0,-0.32062 -0.21374,-0.53436 -0.21375,-0.21375 -0.53437,-0.21375 h -0.10687 q -0.96185,0 -2.45807,0.42749 v 8.01544 h -3.74053 v -7.69482 q 0,-0.32062 -0.21375,-0.53436 -0.21374,-0.21375 -0.53436,-0.21375 h -0.10687 q -0.96186,0 -2.45807,0.42749 v 8.01544 h -3.74054 V 98.882964 h 3.31305 l 0.21374,1.068725 q 1.0046,-0.66261 2.05196,-0.961853 1.06872,-0.320617 1.79545,-0.320617 z"
     id="text"
     style="fill:#e8eddf;stroke:none"
     aria-label="pyoratori.com" />
</svg>
